<svg xmlns="http://www.w3.org/2000/svg" viewBox="0 0 460.00021 460.68899"><title>earth</title><path d="M460,230c0,127.025-102.975,230-230,230S0,357.025,0,230,102.975,0,230,0,460,102.975,460,230Z" fill="#2196f3"/><path d="M460,230a229.05793,229.05793,0,0,1-23.133,100.625H398.486a14.374,14.374,0,0,1-13.637-9.829L346.883,206.899a14.37724,14.37724,0,0,0-7.209-8.312l-15.478-7.739a14.37514,14.37514,0,0,1-7.946-12.857V164.08a14.38021,14.38021,0,0,1,4.21-10.165l34.704-34.704a14.37415,14.37415,0,0,1,10.165-4.21H407.99a14.374,14.374,0,0,1,12.857,7.946l6.429,12.858a14.37512,14.37512,0,0,0,12.857,7.946h3.13A229.30291,229.30291,0,0,1,460,230Zm-215.625,0v11.842a14.39432,14.39432,0,0,1-.865,4.913L190.316,393.038a14.375,14.375,0,0,1-13.51,9.462h-8.32a14.37406,14.37406,0,0,1-13.637-9.829L116.883,278.774a14.3772,14.3772,0,0,0-7.209-8.312l-15.478-7.739a14.37511,14.37511,0,0,1-7.946-12.857V192.83a14.37835,14.37835,0,0,0-4.21-10.165L60.315,160.94a14.379,14.379,0,0,0-6.678-3.781l-38.404-9.601C45.977,67.521,120.163,9.037,208.923.971L228.482,40.09A14.37574,14.37574,0,0,1,230,46.519v2.92a14.37438,14.37438,0,0,1-6.879,12.266L211.348,68.9a14.3799,14.3799,0,0,0-6.373,8.484l-15.211,55.775a14.37541,14.37541,0,0,1-13.868,10.593h-.699a14.37407,14.37407,0,0,1-5.21-.977l-34.451-13.398v.001l-26.069,21.469a14.37587,14.37587,0,0,0-3.719,17.525l5.28,10.559a14.37513,14.37513,0,0,0,12.857,7.946h25.356a14.374,14.374,0,0,1,12.857,7.946l6.429,12.858a14.37514,14.37514,0,0,0,12.857,7.946H230a14.37214,14.37214,0,0,1,14.375,14.36928ZM397.012,71.875h-45.73a10.16244,10.16244,0,0,0-9.091,5.619l-8.756,17.512a10.16355,10.16355,0,0,1-9.091,5.619H297.666A10.165,10.165,0,0,1,287.501,90.46h0V67.665A10.165,10.165,0,0,1,297.666,57.5h0a10.16765,10.16765,0,0,0,7.188-2.977l8.421-8.421a10.16526,10.16526,0,0,0,2.977-7.187V16.736A230.37967,230.37967,0,0,1,397.012,71.875Z" fill="#4caf50"/><path d="M270.07612,4.4927a230.07946,230.07946,0,0,0-60.419-2.62287C301.43723,44.84813,356.83335,145.355,338.379,249.92572S233.47268,429.97031,132.52555,438.93658a230.06692,230.06692,0,0,0,57.66614,18.21652c124.99883,22.05947,244.21291-61.38918,266.27241-186.388S395.07494,26.5522,270.07612,4.4927Z" fill="#3f51b5" opacity="0.7" style="isolation:isolate"/></svg>