<svg xmlns="http://www.w3.org/2000/svg" viewBox="0 0 460 460"><title>earth</title><path d="M460,230c0,127.025-102.975,230-230,230S0,357.025,0,230,102.975,0,230,0,460,102.975,460,230Z" fill="#2196f3"/><path d="M460,230a229.05778,229.05778,0,0,1-23.133,100.625H398.486a14.37408,14.37408,0,0,1-13.637-9.829L346.883,206.899a14.37716,14.37716,0,0,0-7.209-8.312l-15.478-7.739a14.37512,14.37512,0,0,1-7.946-12.857V164.08a14.38019,14.38019,0,0,1,4.21-10.165l34.704-34.704a14.37418,14.37418,0,0,1,10.165-4.21H407.99a14.374,14.374,0,0,1,12.857,7.946l6.429,12.858a14.37511,14.37511,0,0,0,12.857,7.946h3.13A229.30286,229.30286,0,0,1,460,230Zm-215.625,0v11.842a14.39423,14.39423,0,0,1-.865,4.913L190.316,393.038a14.375,14.375,0,0,1-13.51,9.462h-8.32a14.3741,14.3741,0,0,1-13.637-9.829L116.883,278.774a14.37726,14.37726,0,0,0-7.209-8.312l-15.478-7.739a14.37509,14.37509,0,0,1-7.946-12.857V192.83a14.37835,14.37835,0,0,0-4.21-10.165L60.315,160.94a14.379,14.379,0,0,0-6.678-3.781l-38.404-9.601C45.977,67.521,120.163,9.037,208.923.971L228.482,40.09A14.3757,14.3757,0,0,1,230,46.519v2.92a14.3744,14.3744,0,0,1-6.879,12.266L211.348,68.9a14.3799,14.3799,0,0,0-6.373,8.484l-15.211,55.775a14.37541,14.37541,0,0,1-13.868,10.593h-.699a14.374,14.374,0,0,1-5.21-.977l-34.451-13.398v.001l-26.069,21.469a14.37587,14.37587,0,0,0-3.719,17.525l5.28,10.559a14.37512,14.37512,0,0,0,12.857,7.946h25.356a14.374,14.374,0,0,1,12.857,7.946l6.429,12.858a14.37511,14.37511,0,0,0,12.857,7.946H230A14.37214,14.37214,0,0,1,244.375,230ZM397.012,71.875h-45.73a10.16246,10.16246,0,0,0-9.091,5.619l-8.756,17.512a10.16356,10.16356,0,0,1-9.091,5.619H297.666a10.165,10.165,0,0,1-10.165-10.165V67.665A10.165,10.165,0,0,1,297.666,57.5a10.16763,10.16763,0,0,0,7.188-2.977l8.421-8.421a10.16536,10.16536,0,0,0,2.977-7.187V16.736A230.37944,230.37944,0,0,1,397.012,71.875Z" fill="#4caf50"/><path d="M230.17238.17238A230.07931,230.07931,0,0,0,170.217,8.08976C268.06971,34.46338,340.09013,123.81335,340.09013,230S268.07059,425.53663,170.2179,451.91024a230.067,230.067,0,0,0,59.95448,7.91738C357.10277,459.82762,460,356.93039,460,230S357.10277.17238,230.17238.17238Z" fill="#3f51b5" opacity="0.7"/></svg>