<svg xmlns="http://www.w3.org/2000/svg" viewBox="0 0 512 512"><title>planet</title><path d="M434.087,256c0-256-244.87-247.185-244.87-247.185A256.49286,256.49286,0,0,0,13.92,172.52l15.763,22.034L4.897,205.911a256.68474,256.68474,0,0,0,43.824,200.36l48.903,19.327L77.656,439.657a255.6044,255.6044,0,0,0,111.561,63.539S434.087,512,434.087,256Z" fill="#1d71b8"/><polygon points="403.013 339.478 256.105 339.478 222.713 322.783 256.105 306.087 403.013 306.087 403.013 339.478" fill="#4a8ec6"/><rect x="172.522" y="306.08701" width="83.578" height="33.39099" fill="#77aad4"/><rect x="256.10001" y="239.304" width="155.72598" height="33.39101" fill="#4a8ec6"/><rect x="72.348" y="306.08701" width="66.783" height="33.39099" fill="#a4c6e2"/><path d="M77.651,439.652H211.582V406.261H48.728A257.39836,257.39836,0,0,0,77.651,439.652Z" fill="#77aad4"/><path d="M4.909,205.913H155.827V172.522H13.928A254.07214,254.07214,0,0,0,4.909,205.913Z" fill="#a4c6e2"/><rect x="189.217" y="172.522" width="33.39101" height="33.39099" fill="#77aad4"/><path d="M256,0a256.28035,256.28035,0,0,0-66.783,8.819C298.213,38.196,378.435,137.721,378.435,256S298.214,473.804,189.218,503.181A256.26662,256.26662,0,0,0,256,512c141.385,0,256-114.615,256-256S397.385,0,256,0Z" fill="#134a79"/></svg>