<svg xmlns="http://www.w3.org/2000/svg" viewBox="0 0 512.0351 512.03558"><title>planet</title><circle cx="256.01755" cy="256.01803" r="256.01755" fill="#b72020"/><polygon points="403.013 339.478 256.105 339.478 222.713 322.783 256.105 306.088 403.013 306.088 403.013 339.478" fill="#c44b4b"/><rect x="172.522" y="306.08749" width="83.578" height="33.39099" fill="#d37979"/><rect x="256.10001" y="239.3045" width="155.72598" height="33.39102" fill="#c44b4b"/><rect x="72.348" y="306.08749" width="66.783" height="33.39099" fill="#e0a4a4"/><path d="M77.651,439.65251H211.582v-33.391H48.728A257.39621,257.39621,0,0,0,77.651,439.65251Z" transform="translate(0 -0.00001)" fill="#d37979"/><path d="M4.909,205.91349H155.827v-33.391H13.928A254.07125,254.07125,0,0,0,4.909,205.91349Z" transform="translate(0 -0.00001)" fill="#e0a4a4"/><rect x="189.217" y="172.5225" width="33.39101" height="33.39099" fill="#d37979"/><path d="M254.24678.00015a256.28026,256.28026,0,0,0-66.7737,8.88907C296.49985,38.15183,376.8262,137.5926,376.95032,255.8715S296.95789,473.75959,187.99278,503.2509a256.26721,256.26721,0,0,0,66.79121,8.74893c141.38495-.14835,255.87958-114.88354,255.73126-256.26846S395.63171-.1482,254.24678.00015Z" transform="translate(0 -0.00001)" fill="#771515"/></svg>