<svg xmlns="http://www.w3.org/2000/svg" viewBox="0 0 512.03511 512.03561"><title>planet</title><circle cx="256.01756" cy="256.01805" r="256.01756" fill="#1d71b8"/><polygon points="403.013 339.478 256.105 339.478 222.713 322.783 256.105 306.088 403.013 306.088 403.013 339.478" fill="#4a8ec6"/><rect x="172.522" y="306.0875" width="83.578" height="33.39099" fill="#77aad4"/><rect x="256.10001" y="239.3045" width="155.72598" height="33.39101" fill="#4a8ec6"/><rect x="72.348" y="306.0875" width="66.783" height="33.39099" fill="#a4c6e2"/><path d="M77.651,439.652H211.582V406.261H48.728A257.39836,257.39836,0,0,0,77.651,439.652Z" transform="translate(0 0.0005)" fill="#77aad4"/><path d="M4.909,205.913H155.827V172.522H13.928A254.07214,254.07214,0,0,0,4.909,205.913Z" transform="translate(0 0.0005)" fill="#a4c6e2"/><rect x="189.217" y="172.5225" width="33.39101" height="33.39099" fill="#77aad4"/><path d="M254.24678-.00035a256.28035,256.28035,0,0,0-66.7737,8.88907C296.49984,38.15133,376.82621,137.5921,376.95032,255.871s-79.99243,217.88807-188.95753,247.3794a256.26661,256.26661,0,0,0,66.79121,8.74892c141.38493-.14835,255.8796-114.88354,255.73125-256.26847S395.63171-.1487,254.24678-.00035Z" transform="translate(0 0.0005)" fill="#134a79"/></svg>