<svg xmlns="http://www.w3.org/2000/svg" viewBox="0 0 346.352 512"><title>rocket</title><polygon points="143.114 85.826 213.616 367.833 346.352 456.323 346.352 322.938 143.114 85.826" fill="#1e2e3b"/><polygon points="0 322.938 0 456.323 132.736 367.833 203.238 85.826 0 322.938" fill="#3c5d76"/><circle cx="173.176" cy="421.647" r="60.235" fill="#ffda44"/><path d="M229.647,391.529c0,18.295-9.001,36.826-26.752,55.078-3.659,3.763-7.362,7.16-10.895,10.159-3.533-2.998-7.236-6.396-10.895-10.159-17.751-18.251-26.752-36.783-26.752-55.078h75.294M192,346.353l-82.824,45.176C109.176,466.824,192,512,192,512s82.824-45.176,82.824-120.471Z" transform="translate(-18.824)" fill="#ff9811"/><path d="M192,346.353v45.176h37.647c0,18.295-9.001,36.826-26.752,55.078-3.659,3.763-7.362,7.16-10.895,10.159V512s82.824-45.176,82.824-120.471Z" transform="translate(-18.824)" fill="#ff5023"/><path d="M274.824,391.529V120.471C274.824,45.176,192,0,192,0s-82.824,45.176-82.824,120.471V391.53H274.824Z" transform="translate(-18.824)" fill="#cce9f9"/><path d="M274.824,391.529V120.471C274.824,45.176,192,0,192,0V391.529Z" transform="translate(-18.824)" fill="#93c7ef"/><rect x="150.58801" y="225.882" width="45.17601" height="105.412" fill="#1e2e3b"/><rect x="90.352" y="346.353" width="165.647" height="45.17599" fill="#78b9eb"/><rect x="173.176" y="346.353" width="82.82401" height="45.17599" fill="#5a8bb0"/></svg>